# Blender 3.5.1
# www.blender.org
mtllib pic.mtl
o Portrait_of_Young_Woman
v 0.977558 -1.129409 -0.035472
v -0.972832 -1.131088 -0.035472
v -0.974512 1.108248 -0.035473
v 0.977559 1.108248 -0.035473
v 0.670439 -0.804249 -0.049868
v 0.672858 0.789931 -0.049868
v -0.652802 0.792350 -0.049868
v -0.650392 -0.808296 -0.049868
v 0.670439 -0.804249 -0.022252
v 0.672858 0.789931 -0.022253
v -0.652802 0.792350 -0.022253
v -0.650392 -0.808296 -0.022252
v 0.905912 1.033399 -0.049868
v -0.898865 1.033969 -0.049868
v -0.897014 -1.055188 -0.049867
v 0.905342 -1.052951 -0.049867
v 0.740655 0.860758 -0.049868
v -0.724384 0.862639 -0.049868
v -0.722136 -0.880119 -0.049868
v 0.738774 -0.876598 -0.049868
v 0.714908 0.833859 -0.066804
v 0.685801 0.803452 -0.063395
v 0.705202 0.823720 -0.070166
v 0.694548 0.812590 -0.068918
v -0.697304 0.836049 -0.066738
v -0.666405 0.805708 -0.063334
v -0.686996 0.825926 -0.070125
v -0.675686 0.814821 -0.068879
v -0.694921 -0.852874 -0.066784
v -0.664069 -0.821988 -0.063375
v -0.684632 -0.842574 -0.070153
v -0.673340 -0.831269 -0.068906
v 0.683549 -0.818130 -0.063462
v 0.712709 -0.849002 -0.066877
v 0.692319 -0.827414 -0.068961
v 0.702992 -0.838714 -0.070211
v 0.977558 -1.129409 -0.000852
v -0.972832 -1.131088 -0.000852
v -0.974512 1.108248 -0.000853
v 0.977559 1.108248 -0.000853
v 0.850815 0.975841 -0.095836
v 0.899597 1.026802 -0.063716
v 0.869845 0.995720 -0.091533
v 0.887700 1.014373 -0.079776
v -0.840456 0.976614 -0.095836
v -0.892217 1.027441 -0.063676
v -0.860668 0.996462 -0.091528
v -0.879614 1.015065 -0.079756
v -0.838658 -0.996768 -0.095835
v -0.890337 -1.048503 -0.063704
v -0.858822 -1.016953 -0.091531
v -0.877737 -1.035890 -0.079770
v 0.898956 -1.046190 -0.063762
v 0.850088 -0.994451 -0.095835
v 0.887012 -1.033545 -0.079799
v 0.869126 -1.014607 -0.091538
v 0.791125 0.913483 -0.095836
v 0.745143 0.865446 -0.062490
v 0.772474 0.893998 -0.091369
v 0.755643 0.876415 -0.079163
v -0.777957 0.915245 -0.095836
v -0.729110 0.867279 -0.062457
v -0.758120 0.895766 -0.091364
v -0.740241 0.878209 -0.079147
v -0.775620 -0.933661 -0.095836
v -0.726882 -0.884869 -0.062479
v -0.755844 -0.913864 -0.091367
v -0.738005 -0.896005 -0.079157
v 0.743310 -0.881401 -0.062526
v 0.789324 -0.930118 -0.095836
v 0.753844 -0.892554 -0.079181
v 0.770687 -0.910386 -0.091373
vn -0.2505 -0.2520 -0.9348
vn -0.2879 0.2865 -0.9138
vn -0.2518 0.2558 -0.9334
vn -0.0000 -0.0000 -1.0000
vn 0.8949 0.0013 -0.4462
vn 1.0000 0.0015 -0.0000
vn 0.8939 0.0013 -0.4482
vn -0.0940 0.0963 -0.9909
vn 0.0968 0.0979 -0.9905
vn 0.1004 0.0944 -0.9905
vn -0.8997 0.0013 -0.4364
vn -1.0000 0.0015 -0.0000
vn -0.9014 0.0014 -0.4330
vn -0.0027 0.8942 -0.4476
vn -0.0031 1.0000 -0.0000
vn -0.0027 0.8937 -0.4487
vn -0.0016 -0.8966 -0.4429
vn -0.0018 -1.0000 -0.0000
vn -0.0016 -0.8968 -0.4424
vn 0.0844 -0.0779 -0.9934
vn 0.0280 0.0280 -0.9992
vn -0.0287 0.0291 -0.9992
vn -0.0939 -0.0941 -0.9911
vn -0.0954 0.0949 -0.9909
vn 0.0952 -0.0966 -0.9908
vn 0.1000 -0.0921 -0.9907
vn -0.0787 0.0806 -0.9936
vn 0.0282 -0.0281 -0.9992
vn -0.8663 -0.0008 -0.4995
vn -0.9011 -0.0008 -0.4335
vn -0.8668 -0.0008 -0.4987
vn -0.3267 -0.3165 -0.8906
vn 0.3135 -0.3172 -0.8951
vn -0.3240 0.3122 -0.8931
vn 0.9358 0.0012 -0.3525
vn 0.8766 0.0011 -0.4812
vn 0.9364 0.0012 -0.3511
vn 0.2873 -0.2912 -0.9125
vn 0.2620 -0.2490 -0.9324
vn 0.2914 0.2941 -0.9102
vn 0.2642 0.2534 -0.9306
vn -0.1049 -0.1057 -0.9888
vn 0.1117 -0.1021 -0.9885
vn 0.1117 0.1124 -0.9874
vn -0.1163 0.1137 -0.9867
vn 0.3115 0.3135 -0.8971
vn -0.1052 0.1082 -0.9885
vn 0.1126 -0.1134 -0.9871
vn 0.1127 0.1048 -0.9881
vn -0.1172 -0.1148 -0.9865
vn 0.0844 0.0793 -0.9933
vn -0.0289 -0.0292 -0.9992
vn 0.0011 -0.8990 -0.4380
vn 0.0011 -0.8666 -0.4991
vn 0.0011 -0.8639 -0.5037
vn -0.0012 -0.9384 -0.3455
vn -0.0011 -0.8790 -0.4767
vn -0.0012 -0.9373 -0.3486
vn -0.0021 0.8751 -0.4839
vn -0.0022 0.9361 -0.3518
vn -0.0023 0.9347 -0.3555
vn -0.8872 0.0009 -0.4614
vn -0.9413 0.0010 -0.3377
vn -0.9423 0.0010 -0.3347
vn 0.0003 0.8708 -0.4916
vn 0.0003 0.9027 -0.4302
vn 0.0003 0.8684 -0.4959
vn -1.0000 -0.0007 -0.0000
vn -0.0000 1.0000 -0.0000
vn 0.0009 -1.0000 -0.0000
vn 1.0000 -0.0000 -0.0000
vn 0.2498 0.2397 -0.9382
vn 0.2493 -0.2362 -0.9392
vn 0.4321 0.4232 -0.7964
vn 0.4306 -0.4189 -0.7994
vn 0.8782 -0.0003 -0.4783
vn 0.8770 -0.0002 -0.4805
vn -0.4197 0.4229 -0.8031
vn -0.2374 0.2412 -0.9410
vn -0.4183 -0.4194 -0.8057
vn -0.2371 -0.2378 -0.9419
vn -0.0788 -0.0791 -0.9937
vn 0.1632 0.1640 -0.9729
vn -0.1711 0.1653 -0.9713
vn -0.0015 0.6611 -0.7503
vn -0.0016 0.6616 -0.7499
vn -0.0021 0.8762 -0.4819
vn 0.1639 -0.1656 -0.9725
vn 0.6604 0.0008 -0.7510
vn 0.6615 0.0008 -0.7500
vn 0.8757 0.0011 -0.4828
vn -0.1717 -0.1669 -0.9709
vn -0.0008 -0.6668 -0.7453
vn -0.0008 -0.6673 -0.7448
vn -0.0011 -0.8799 -0.4752
vn -0.8856 0.0009 -0.4645
vn -0.6806 0.0007 -0.7326
vn -0.6786 0.0007 -0.7345
vn 0.9099 -0.0003 -0.4148
vn -0.2840 -0.2848 -0.9156
vn -0.0940 -0.0941 -0.9911
vn -0.9005 -0.0008 -0.4349
vn 0.0011 -0.9006 -0.4346
vn 0.0003 0.9041 -0.4273
vn 0.9086 -0.0002 -0.4177
vt 0.994159 0.972734
vt 0.081951 0.023471
vt 0.034293 0.846463
vt 0.034293 0.159767
vt 0.917393 0.022752
vt 0.977436 0.972627
vt 0.977436 0.027156
vt 0.918113 0.981963
vt 0.019300 0.161732
vt 0.019300 0.849020
vt 0.081951 0.981963
vt 0.994159 0.027049
vt 0.077133 0.870903
vt 0.213504 0.162752
vt 0.056265 0.870587
vt 0.056265 0.309306
vt 0.155678 0.014014
vt 0.780310 0.846650
vt 0.958158 0.285837
vt 0.678122 0.014014
vt 0.958158 0.971468
vt 0.077133 0.328687
vt 0.779277 0.161019
vt 0.213504 0.162752
vt 0.046542 0.870587
vt 0.065797 0.870903
vt 0.212468 0.845613
vt 0.046542 0.309306
vt 0.155678 0.003131
vt 0.780310 0.846650
vt 0.946329 0.285837
vt 0.678122 0.003131
vt 0.779277 0.161019
vt 0.946329 0.971468
vt 0.065797 0.328687
vt 0.112640 0.949902
vt 0.885710 0.950146
vt 0.884917 0.055264
vt 0.112884 0.056222
vt 0.224030 0.987121
vt 0.038168 0.222960
vt 0.183427 0.875952
vt 0.927912 0.218200
vt 0.810972 0.876758
vt 0.851575 0.987121
vt 0.927912 0.964704
vt 0.810009 0.130254
vt 0.184233 0.131762
vt 0.038168 0.834651
vt 0.194456 0.864430
vt 0.061028 0.304546
vt 0.150577 0.019345
vt 0.206924 0.851405
vt 0.198614 0.860087
vt 0.203177 0.855319
vt 0.799372 0.865368
vt 0.683483 0.019321
vt 0.786137 0.852371
vt 0.794957 0.861032
vt 0.790112 0.856275
vt 0.798351 0.141924
vt 0.785136 0.155154
vt 0.793944 0.146336
vt 0.789107 0.151178
vt 0.061052 0.875474
vt 0.207888 0.156807
vt 0.195398 0.143583
vt 0.204132 0.152830
vt 0.199560 0.147989
vt 0.022104 0.846463
vt 0.979528 0.972734
vt 0.962819 0.972627
vt 0.022104 0.159767
vt 0.962819 0.027156
vt 0.007111 0.161732
vt 0.007111 0.849020
vt 0.979528 0.027049
vt 0.136241 0.925247
vt 0.115345 0.947076
vt 0.128090 0.933763
vt 0.119631 0.942587
vt 0.860691 0.925578
vt 0.882863 0.947350
vt 0.869349 0.934080
vt 0.878308 0.942883
vt 0.859920 0.080287
vt 0.882057 0.058127
vt 0.868557 0.071641
vt 0.877501 0.062688
vt 0.115620 0.059118
vt 0.136552 0.081280
vt 0.119925 0.063695
vt 0.128397 0.072646
vt 0.161809 0.898537
vt 0.222108 0.989154
vt 0.039839 0.221310
vt 0.169798 0.890190
vt 0.177007 0.883266
vt 0.217610 0.994526
vt 0.044254 0.217448
vt 0.176427 0.882658
vt 0.833920 0.899291
vt 0.929940 0.216212
vt 0.853599 0.989148
vt 0.825422 0.890947
vt 0.858366 0.994526
vt 0.818363 0.883426
vt 0.935317 0.211531
vt 0.817763 0.884015
vt 0.832918 0.107319
vt 0.812041 0.128219
vt 0.929944 0.966738
vt 0.824447 0.115799
vt 0.935317 0.971509
vt 0.816810 0.125265
vt 0.817418 0.123448
vt 0.182290 0.129705
vt 0.039844 0.836342
vt 0.162580 0.108837
vt 0.044254 0.840269
vt 0.177782 0.126741
vt 0.177176 0.124927
vt 0.170563 0.117289
s 1
usemtl Portrait
f 29/61/1 18/44/2 25/56/3
f 9/24/4 11/30/4 10/27/4
f 7/19/5 12/34/6 8/21/7
f 14/37/8 4/11/9 13/36/10
f 5/15/11 10/28/12 6/16/13
f 8/22/14 9/26/15 5/13/16
f 6/17/17 11/32/18 7/20/19
f 54/91/20 65/110/21 70/119/22
f 15/38/23 3/8/24 14/37/8
f 1/2/25 15/38/23 16/39/26
f 65/110/21 45/82/27 61/102/28
f 50/87/29 14/37/30 46/83/31
f 4/11/9 16/39/26 13/36/10
f 22/51/32 5/15/11 6/16/13
f 8/23/7 26/58/33 7/18/5
f 33/66/34 8/23/14 5/14/16
f 19/46/35 62/103/36 18/43/37
f 20/48/38 29/61/1 34/67/39
f 25/56/3 17/42/40 21/50/41
f 7/20/19 22/52/32 6/17/17
f 34/67/39 31/63/42 36/69/43
f 36/69/43 32/64/44 35/68/45
f 35/68/45 30/62/46 33/66/34
f 25/56/3 31/63/42 29/61/1
f 27/59/47 32/64/44 31/63/42
f 28/60/48 30/62/46 32/64/44
f 21/50/41 27/59/47 25/56/3
f 23/54/49 28/60/48 27/59/47
f 24/55/50 26/58/33 28/60/48
f 33/66/34 24/55/50 35/68/45
f 35/68/45 23/54/49 36/69/43
f 36/69/43 21/50/41 34/67/39
f 17/42/40 34/67/39 21/50/41
f 61/102/28 41/78/51 57/94/52
f 41/78/51 70/119/22 57/94/52
f 16/39/53 50/87/54 53/90/55
f 18/45/56 58/95/57 17/40/58
f 69/117/59 19/47/60 20/48/61
f 58/96/62 20/49/63 17/41/64
f 46/83/65 13/36/66 42/79/67
f 2/6/68 39/74/68 3/7/68
f 3/9/69 40/76/69 4/10/69
f 1/3/70 38/73/70 2/4/70
f 4/12/71 37/71/71 1/1/71
f 54/91/20 43/80/72 56/93/73
f 56/93/73 44/81/74 55/92/75
f 55/92/75 42/79/76 53/90/77
f 42/79/67 48/85/78 46/83/65
f 44/81/74 47/84/79 48/85/78
f 43/80/72 45/82/27 47/84/79
f 46/83/31 52/89/80 50/87/29
f 48/85/78 51/88/81 52/89/80
f 47/84/79 49/86/82 51/88/81
f 53/90/55 52/89/80 55/92/75
f 55/92/75 51/88/81 56/93/73
f 56/93/73 49/86/82 54/91/20
f 70/119/22 67/113/83 72/123/84
f 72/123/84 68/115/85 71/121/86
f 71/121/86 66/111/87 69/117/59
f 61/102/28 67/113/83 65/110/21
f 63/105/88 68/116/89 67/113/83
f 64/108/90 66/112/91 68/114/89
f 57/94/52 63/105/88 61/102/28
f 59/97/92 64/109/93 63/105/88
f 60/99/94 62/104/95 64/106/93
f 69/118/96 60/100/97 71/120/98
f 71/122/98 59/97/92 72/123/84
f 72/123/84 57/94/52 70/119/22
f 13/36/99 53/90/77 42/79/76
f 29/61/1 19/47/100 18/44/2
f 9/24/4 12/33/4 11/30/4
f 7/19/5 11/31/6 12/34/6
f 14/37/8 3/8/24 4/11/9
f 5/15/11 9/25/12 10/28/12
f 8/22/14 12/35/15 9/26/15
f 6/17/17 10/29/18 11/32/18
f 54/91/20 49/86/82 65/110/21
f 15/38/23 2/5/101 3/8/24
f 1/2/25 2/5/101 15/38/23
f 65/110/21 49/86/82 45/82/27
f 50/87/29 15/38/102 14/37/30
f 4/11/9 1/2/25 16/39/26
f 22/51/32 33/65/34 5/15/11
f 8/23/7 30/62/46 26/58/33
f 33/66/34 30/62/46 8/23/14
f 19/46/35 66/112/91 62/103/36
f 20/48/38 19/47/100 29/61/1
f 25/56/3 18/44/2 17/42/40
f 7/20/19 26/57/33 22/52/32
f 34/67/39 29/61/1 31/63/42
f 36/69/43 31/63/42 32/64/44
f 35/68/45 32/64/44 30/62/46
f 25/56/3 27/59/47 31/63/42
f 27/59/47 28/60/48 32/64/44
f 28/60/48 26/58/33 30/62/46
f 21/50/41 23/54/49 27/59/47
f 23/54/49 24/55/50 28/60/48
f 24/55/50 22/53/32 26/58/33
f 33/66/34 22/53/32 24/55/50
f 35/68/45 24/55/50 23/54/49
f 36/69/43 23/54/49 21/50/41
f 17/42/40 20/48/38 34/67/39
f 61/102/28 45/82/27 41/78/51
f 41/78/51 54/91/20 70/119/22
f 16/39/53 15/38/103 50/87/54
f 18/45/56 62/104/95 58/95/57
f 69/117/59 66/111/87 19/47/60
f 58/96/62 69/118/96 20/49/63
f 46/83/65 14/37/104 13/36/66
f 2/6/68 38/72/68 39/74/68
f 3/9/69 39/75/69 40/76/69
f 1/3/70 37/70/70 38/73/70
f 4/12/71 40/77/71 37/71/71
f 54/91/20 41/78/51 43/80/72
f 56/93/73 43/80/72 44/81/74
f 55/92/75 44/81/74 42/79/76
f 42/79/67 44/81/74 48/85/78
f 44/81/74 43/80/72 47/84/79
f 43/80/72 41/78/51 45/82/27
f 46/83/31 48/85/78 52/89/80
f 48/85/78 47/84/79 51/88/81
f 47/84/79 45/82/27 49/86/82
f 53/90/55 50/87/54 52/89/80
f 55/92/75 52/89/80 51/88/81
f 56/93/73 51/88/81 49/86/82
f 70/119/22 65/110/21 67/113/83
f 72/123/84 67/113/83 68/115/85
f 71/121/86 68/115/85 66/111/87
f 61/102/28 63/105/88 67/113/83
f 63/105/88 64/107/90 68/116/89
f 64/108/90 62/103/36 66/112/91
f 57/94/52 59/97/92 63/105/88
f 59/97/92 60/98/94 64/109/93
f 60/99/94 58/95/57 62/104/95
f 69/118/96 58/96/62 60/100/97
f 71/122/98 60/101/97 59/97/92
f 72/123/84 59/97/92 57/94/52
f 13/36/99 16/39/105 53/90/77
